:SAMPLES-PER-SECOND 30
:FULLY-SPECIFIED
:DEGREES
393
root  29.5546 33.0187 37.1156 -175.509 -50.4031 -176.092
RightUpLeg  -1.42625 -1.24539 -11.4248
RightLeg  21.1582 -6.00347 -1.8867
RightFoot  8.80321 0.107173 -1.01463
RightToes  -57.9175 -0.374991 -0.392497
Spine  3.18507 -2.49505 -0.297972
Spine1  4.8295 -5.09556 -0.765073
HEad  9.71899 -3.0604 10.4439
LeftShoulder1  0 -2.42657e-020 -4.95415e-022
LeftArm  -6.73542 -29.5248 -85.6431
LeftForeArm  25.0289 -66.4031 -23.9321
LeftHand  -0.130946 -2.3816 5.94062
RightShoulder  0 2.42657e-020 1.07489e-018
RightArm  -11.9548 26.8803 74.934
RightForeArm  83.6374 76.8693 49.6084
RightHand  -5.116 16.7755 -33.3544
LeftUpLeg  -7.07078 10.9956 2.75789
LeftLeg  27.1543 2.89141 1.25153
LeftFoot  -14.4987 -0.115775 -0.910138
LeftToes  -11.5972 3.33339e-006 -4.73431e-007
394
root  28.262 32.8178 37.3669 -175.979 -52.519 -175.112
RightUpLeg  -4.72904 0.144136 -11.235
RightLeg  30.2085 -9.58381 -4.75606
RightFoot  10.9557 0.237668 -2.10026
RightToes  -55.8937 -0.3562 -0.38626
Spine  3.08634 -3.18811 0.375548
Spine1  4.8213 -6.44921 0.386888
HEad  12.6445 -2.5806 9.92486
LeftShoulder1  0 -2.42657e-020 -4.95415e-022
LeftArm  -3.7485 -22.8662 -84.4749
LeftForeArm  26.302 -74.1815 -38.7551
LeftHand  -0.00215656 -0.117625 1.83964
RightShoulder  0 2.42657e-020 1.07489e-018
RightArm  -9.9228 12.7719 72.5603
RightForeArm  158.156 78.3858 119.823
RightHand  -5.59912 15.7741 -38.5297
LeftUpLeg  -4.81204 8.57585 1.89742
LeftLeg  24.6713 2.81459 1.0763
LeftFoot  -16.9127 -0.146347 -0.984341
LeftToes  -9.35443 3.33339e-006 -4.73431e-007
395
root  26.9841 32.4085 37.6732 -175.155 -54.8864 -175.65
RightUpLeg  -10.1925 0.884734 -11.6128
RightLeg  43.1881 -11.7205 -9.52821
RightFoot  10.4719 0.293021 -2.81898
RightToes  -37.4896 -0.198746 -0.300507
Spine  2.89293 -4.27532 0.688758
Spine1  4.67532 -8.54041 0.802499
HEad  16.2266 -0.867294 9.11542
LeftShoulder1  0 -2.42657e-020 -4.95415e-022
LeftArm  -0.668808 -14.4469 -83.7931
LeftForeArm  49.5019 -79.1489 -67.9154
LeftHand  -0.00418712 1.0751 -0.810951
RightShoulder  0 2.42657e-020 1.07489e-018
RightArm  -5.26387 -1.6031 71.4713
RightForeArm  -172.48 72.5639 145.312
RightHand  -5.93807 15.5885 -41.1501
LeftUpLeg  -3.85919 3.56315 -0.581967
LeftLeg  24.722 4.97063 1.90598
LeftFoot  -20.2024 -0.343986 -1.93073
LeftToes  -5.2384 3.33339e-006 -4.73431e-007
396
root  25.8167 31.75 37.9025 -175.422 -55.572 -175.967
RightUpLeg  -16.5063 4.1323 -10.8157
RightLeg  56.7931 -9.18911 -12.0708
RightFoot  6.65578 0.125668 -1.78318
RightToes  -31.5769 -0.154929 -0.262775
Spine  3.36133 -5.01542 0.689615
Spine1  5.68642 -9.98649 0.688538
HEad  19.0975 1.59401 8.34206
LeftShoulder1  0 -2.42657e-020 -4.95415e-022
LeftArm  4.13062 -6.76805 -82.1935
LeftForeArm  75.6767 -79.8927 -93.6319
LeftHand  -0.0171352 0.316271 -6.43111
RightShoulder  0 2.42657e-020 1.07489e-018
RightArm  6.03436 -14.6161 68.936
RightForeArm  -158.366 69.2762 151.809
RightHand  -6.20584 9.82944 -64.1203
LeftUpLeg  -4.33873 -0.623331 -3.11485
LeftLeg  30.0586 7.88704 3.88917
LeftFoot  -24.9032 -0.839432 -3.80031
LeftToes  -0.611694 3.33339e-006 -4.73431e-007
397
root  24.6826 30.9084 38.0775 -177.501 -54.3121 -175.042
RightUpLeg  -22.6563 8.18844 -8.74054
RightLeg  67.9995 -4.46264 -9.32883
RightFoot  0.984599 0.00491647 -0.194494
RightToes  -30.3683 -0.146465 -0.254517
Spine  4.68141 -5.64106 1.01026
Spine1  8.34353 -11.4428 1.4976
HEad  17.9791 5.26779 4.98687
LeftShoulder1  0 -2.42657e-020 -4.95415e-022
LeftArm  6.25778 0.709109 -78.9561
LeftForeArm  91.5703 -79.1261 -112.061
LeftHand  0.0765053 -1.30638 -7.11063
RightShoulder  0 2.42657e-020 1.07489e-018
RightArm  13.4714 -23.6788 66.6621
RightForeArm  -152.387 66.8355 155.293
RightHand  -6.80001 11.0644 -62.7092
LeftUpLeg  -3.87114 -2.33898 -5.14812
LeftLeg  35.8742 10.0029 6.23605
LeftFoot  -30.3209 -1.64497 -6.06582
LeftToes  4.0095 3.33339e-006 -4.73431e-007
398
root  23.5084 30.0149 38.21 -179.588 -51.7407 -174.712
RightUpLeg  -28.421 11.5627 -6.28126
RightLeg  76.9762 -2.45086 -8.38544
RightFoot  -3.89297 0.00663821 0.572975
RightToes  -28.6401 -0.134669 -0.242404
Spine  6.21082 -6.03009 0.814871
Spine1  11.4935 -12.2607 1.0049
HEad  16.0849 10.032 2.84609
LeftShoulder1  0 -2.42657e-020 -4.95415e-022
LeftArm  7.69483 4.85262 -74.8988
LeftForeArm  101.294 -78.7603 -116.241
LeftHand  0.105216 -2.11093 -6.09625
RightShoulder  0 2.42657e-020 1.07489e-018
RightArm  14.4986 -26.2358 66.9743
RightForeArm  -153.986 67.6418 154.235
RightHand  -7.00371 12.3807 -58.5185
LeftUpLeg  -1.50379 -1.19811 -7.28053
LeftLeg  39.1014 10.7895 7.57832
LeftFoot  -35.3443 -2.48045 -7.77463
LeftToes  7.47238 3.33339e-006 -4.73431e-007
399
root  22.4032 29.2833 38.2778 179.641 -48.7917 -174.281
RightUpLeg  -35.4047 13.5466 -2.92421
RightLeg  82.5045 -2.33426 -12.104
RightFoot  -8.36726 0.103247 1.7891
RightToes  -22.318 -0.0947543 -0.195194
Spine  6.64358 -5.96136 0.705773
Spine1  12.3868 -12.0831 0.591689
HEad  17.532 13.7776 2.49385
LeftShoulder1  0 -2.42657e-020 -4.95415e-022
LeftArm  9.32998 6.85024 -73.324
LeftForeArm  92.2915 -79.486 -106.288
LeftHand  0.0792556 -1.85415 -5.28454
RightShoulder  0 2.42657e-020 1.07489e-018
RightArm  13.8403 -26.1905 67.2546
RightForeArm  -158.136 68.8712 152.442
RightHand  -7.21853 13.727 -54.9645
LeftUpLeg  0.0485441 3.17341 -7.91415
LeftLeg  40.2507 9.6238 7.06429
LeftFoot  -38.8378 -2.68599 -7.60945
LeftToes  8.5723 3.33339e-006 -4.73431e-007
400
root  21.169 28.9452 38.2986 179.496 -47.2391 -172.332
RightUpLeg  -42.1217 12.9249 1.78756
RightLeg  82.1208 -3.13046 -15.3672
RightFoot  -12.1977 0.313797 3.31393
RightToes  -17.533 -0.0681373 -0.156697
Spine  6.6579 -6.16563 1.16524
Spine1  12.2744 -12.5799 1.3654
HEad  19.5702 16.9388 2.38857
LeftShoulder1  0 -2.42657e-020 -4.95415e-022
LeftArm  8.41005 7.05679 -74.5761
LeftForeArm  83.1624 -79.8465 -96.1622
LeftHand  0.0882925 -1.59406 -6.73947
RightShoulder  0 2.42657e-020 1.07489e-018
RightArm  12.9806 -23.8121 67.6709
RightForeArm  -165.217 69.9159 150.706
RightHand  -7.16707 14.5501 -51.912
LeftUpLeg  1.54187 6.52778 -7.32646
LeftLeg  37.9644 8.41831 5.69444
LeftFoot  -40.2313 -2.43714 -6.64773
LeftToes  9.19142 3.33339e-006 -4.73431e-007
401
root  19.6755 29.0119 38.1548 178.508 -47.0225 -168.993
RightUpLeg  -46.2064 10.7276 7.89249
RightLeg  76.3741 -4.83226 -15.3669
RightFoot  -14.0129 0.425571 3.83947
RightToes  -16.2607 -0.0616092 -0.146098
Spine  6.62797 -6.75585 2.1293
Spine1  12.0043 -13.9285 3.12255
HEad  21.177 20.0335 1.37883
LeftShoulder1  0 -2.42657e-020 -4.95415e-022
LeftArm  5.22973 6.16069 -77.0636
LeftForeArm  70.5524 -79.7167 -78.8119
LeftHand  0.228036 -3.4252 -8.00169
RightShoulder  0 2.42657e-020 1.07489e-018
RightArm  9.52306 -20.7293 69.1687
RightForeArm  -172.492 71.1121 148.461
RightHand  -7.0893 16.4395 -46.0674
LeftUpLeg  5.24887 5.92002 -6.79683
LeftLeg  31.5336 9.31067 4.88235
LeftFoot  -39.0558 -2.38173 -6.70871
LeftToes  10.6717 3.33339e-006 -4.73431e-007
402
root  18.0474 29.2944 37.8846 177.318 -47.9996 -164.243
RightUpLeg  -48.9455 7.33374 14.8134
RightLeg  66.3707 -6.12533 -11.793
RightFoot  -14.1379 0.334974 3.07846
RightToes  -19.2501 -0.0773181 -0.170766
Spine  6.21853 -7.51766 3.69898
Spine1  10.9642 -15.6306 6.07011
HEad  22.0252 22.7048 -1.05997
LeftShoulder1  0 -2.42657e-020 -4.95415e-022
LeftArm  2.18363 5.15493 -79.2502
LeftForeArm  59.1916 -78.5532 -61.4687
LeftHand  0.414591 -5.62752 -8.80104
RightShoulder  0 2.42657e-020 1.07489e-018
RightArm  4.38197 -17.4504 70.7134
RightForeArm  -179.69 71.8498 146.892
RightHand  -6.50679 18.3129 -38.4939
LeftUpLeg  8.35466 4.31404 -5.06465
LeftLeg  25.0734 9.48755 3.69146
LeftFoot  -34.7554 -1.84096 -5.87791
LeftToes  9.84169 3.33339e-006 -4.73431e-007
